HIERARCHY
ROOT RootJoint
{
    OFFSET   0.000000   0.000000   0.000000
    CHANNELS 6 Xposition Yposition Zposition Xrotation Yrotation Zrotation
    JOINT pelvis_lowerback
    {
        OFFSET   0.000000   0.093605   0.000000
        CHANNELS 3 Xrotation Yrotation Zrotation
        JOINT lowerback_torso
        {
            OFFSET   0.000000   0.100000   0.000000
            CHANNELS 3 Xrotation Yrotation Zrotation
            JOINT torso_head
            {
                OFFSET   0.000000   0.282350   0.000000
                CHANNELS 3 Xrotation Yrotation Zrotation
                End Site
                {
                    OFFSET   0.000000   0.192650   0.000000
                }
            }
            JOINT rTorso_Clavicle
            {
                OFFSET  -0.001000   0.157500   0.000000
                CHANNELS 3 Xrotation Yrotation Zrotation
                JOINT rShoulder
                {
                    OFFSET  -0.117647   0.000000   0.000000
                    CHANNELS 3 Xrotation Yrotation Zrotation
                    JOINT rElbow
                    {
                        OFFSET  -0.245000   0.000000   0.000000
                        CHANNELS 3 Xrotation Yrotation Zrotation
                        JOINT rWrist
                        {
                            OFFSET  -0.240000   0.000000   0.000000
                            CHANNELS 3 Xrotation Yrotation Zrotation
                            End Site
                            {
                                OFFSET  -0.116353  -0.002500   0.000000
                            }
                        }
                    }
                }
            }
            JOINT lTorso_Clavicle
            {
                OFFSET   0.001000   0.157500   0.000000
                CHANNELS 3 Xrotation Yrotation Zrotation
                JOINT lShoulder
                {
                    OFFSET   0.117647   0.000000   0.000000
                    CHANNELS 3 Xrotation Yrotation Zrotation
                    JOINT lElbow
                    {
                        OFFSET   0.245000   0.000000   0.000000
                        CHANNELS 3 Xrotation Yrotation Zrotation
                        JOINT lWrist
                        {
                            OFFSET   0.240000   0.000000   0.000000
                            CHANNELS 3 Xrotation Yrotation Zrotation
                            End Site
                            {
                                OFFSET   0.116353  -0.002500   0.000000
                            }
                        }
                    }
                }
            }
        }
    }
    JOINT rHip
    {
        OFFSET  -0.100000  -0.051395   0.000000
        CHANNELS 3 Xrotation Yrotation Zrotation
        JOINT rKnee
        {
            OFFSET   0.000000  -0.410000   0.000000
            CHANNELS 3 Xrotation Yrotation Zrotation
            JOINT rAnkle
            {
                OFFSET   0.000000  -0.390000   0.000000
                CHANNELS 3 Xrotation Yrotation Zrotation
                JOINT rToeJoint
                {
                    OFFSET   0.000000  -0.050000   0.130000
                    CHANNELS 3 Xrotation Yrotation Zrotation
                    End Site
                    {
                        OFFSET  -0.010000   0.002000   0.060000
                    }
                }
            }
        }
    }
    JOINT lHip
    {
        OFFSET   0.100000  -0.051395   0.000000
        CHANNELS 3 Xrotation Yrotation Zrotation
        JOINT lKnee
        {
            OFFSET   0.000000  -0.410000   0.000000
            CHANNELS 3 Xrotation Yrotation Zrotation
            JOINT lAnkle
            {
                OFFSET   0.000000  -0.390000   0.000000
                CHANNELS 3 Xrotation Yrotation Zrotation
                JOINT lToeJoint
                {
                    OFFSET   0.000000  -0.050000   0.130000
                    CHANNELS 3 Xrotation Yrotation Zrotation
                    End Site
                    {
                        OFFSET   0.010000   0.002000   0.060000
                    }
                }
            }
        }
    }
}
MOTION
Frames: 14
Frame Time:   0.008333
 -2.383811   0.704691   3.973942  28.878289   2.876368  -0.154630  52.784903  -0.348069  -2.837284  -2.759225  -0.820393  -3.073147 -20.362097   1.091719  -5.674554  -2.343154  16.963014  12.947010  -5.315791   3.947575  32.666967  -0.000933  25.647053  -0.019420   1.364831   1.790968  -6.718590  -5.027696 -12.718762 -15.788193  -1.535595  -0.077952 -39.424597   0.010702 -23.310456   0.002466  -4.369335  -4.363142   6.890120 -71.774124  -2.949399  -6.675717  85.780522  -0.000891   0.000286 -43.552174 -12.118142  -6.027712   1.030278   0.000471   0.000542 -74.251798   3.473319   5.921490  90.458051  -0.000094  -0.000052 -31.199776   2.783391   3.914143 -19.456453  -0.002021   0.006356
 -2.383649   0.707153   3.977891  28.498009   3.017824  -0.145686  52.250859  -0.507073  -2.733294  -2.675607  -1.024689  -3.093487 -20.430118   1.153629  -5.700189  -3.016180  18.205693  13.194709  -7.132093   4.670694  32.043052   0.001466  25.482565  -0.017821   1.071743   0.942782  -6.044592  -5.914528 -13.928982 -15.750632  -3.946318  -1.114409 -38.006794   0.009845 -23.242035   0.002643  -4.633139  -3.568063   6.285909 -70.735206  -2.928956  -6.738854  85.332872  -0.001300   0.000049 -43.763947 -11.997878  -6.071126   1.036820   0.000384   0.000447 -73.502503   3.290294   5.749578  90.306192   0.000150  -0.000019 -30.353611   2.758787   3.550823 -21.061711  -0.005036   0.006714
 -2.383651   0.709673   3.981582  28.146142   3.225778  -0.169627  51.691403  -0.666054  -2.629107  -2.700881  -1.228594  -3.096408 -20.431302   1.204103  -5.729356  -3.829514  19.524481  13.301642  -8.945123   5.511251  31.334912   0.002572  25.396024  -0.015454   0.810140   0.337402  -5.647393  -6.960528 -15.235521 -15.531058  -6.332014  -2.297434 -36.506606   0.007728 -23.249645   0.002126  -4.854949  -3.038977   6.000231 -69.724470  -2.910360  -6.797242  84.860697  -0.001859  -0.000406 -43.950428 -11.886392  -6.111667   1.045486   0.000316   0.000382 -72.797027   3.111349   5.574029  90.105770   0.000314  -0.000067 -29.551397   2.716850   3.209192 -22.406894  -0.006756   0.005821
 -2.383722   0.711995   3.985146  27.829615   3.476854  -0.221421  51.091678  -0.813126  -2.531779  -2.867283  -1.422303  -3.089596 -20.424734   1.250362  -5.758574  -4.702027  20.857697  13.327470 -10.700503   6.406952  30.611469   0.002761  25.355046  -0.012926   0.584751  -0.019422  -5.464650  -8.072264 -16.580962 -15.224588  -8.626135  -3.564951 -35.036087   0.004951 -23.304120   0.001200  -5.031146  -2.807109   5.956534 -68.766794  -2.896254  -6.851529  84.415476  -0.002385  -0.000900 -44.144784 -11.783496  -6.149693   1.056298   0.000263   0.000339 -72.153231   2.944758   5.407430  89.913817   0.000343  -0.000166 -28.803105   2.672027   2.890359 -23.652807  -0.007754   0.004254
 -2.383799   0.714037   3.988696  27.538615   3.756028  -0.293749  50.448836  -0.947640  -2.444156  -3.151409  -1.605718  -3.082045 -20.424727   1.294249  -5.786805  -5.593964  22.173395  13.310493 -12.377933   7.325382  29.906831   0.002355  25.344051  -0.010481   0.385046  -0.195739  -5.423122  -9.199990 -17.930512 -14.890238 -10.802887  -4.877667 -33.648741   0.001983 -23.389293   0.000030  -5.175766  -2.798647   6.048704 -67.853143  -2.886674  -6.903435  84.015687  -0.002792  -0.001323 -44.364638 -11.689260  -6.185781   1.069275   0.000222   0.000315 -71.554236   2.791188   5.252505  89.748813   0.000287  -0.000270 -28.112325   2.625747   2.591920 -24.904559  -0.008380   0.002360
 -2.383841   0.715803   3.992321  27.269682   4.052028  -0.380817  49.765634  -1.072025  -2.368387  -3.526587  -1.780924  -3.079872 -20.434763   1.336342  -5.814161  -6.481567  23.453036  13.272073 -13.968492   8.245927  29.238660   0.001606  25.353639  -0.008237   0.204562  -0.243672  -5.473084 -10.312686 -19.262356 -14.560169 -12.851480  -6.206237 -32.370060  -0.000857 -23.494575  -0.001248  -5.297975  -2.949649   6.204493 -66.973594  -2.881945  -6.953482  83.660856  -0.003063  -0.001635 -44.616047 -11.603888  -6.220396   1.084281   0.000192   0.000304 -70.986847   2.650077   5.109661  89.614054   0.000199  -0.000352 -27.477778   2.578312   2.311954 -26.199340  -0.008767   0.000318
 -2.383821   0.717338   3.996088  27.023986   4.355806  -0.477814  49.047192  -1.189089  -2.306174  -3.969734  -1.950016  -3.086829 -20.454819   1.376801  -5.841098  -7.349522  24.684466  13.222927 -15.468926   9.154027  28.614552   0.000701  25.377472  -0.006249   0.039559  -0.199921  -5.583324 -11.390155 -20.561128 -14.249669 -14.769199  -7.527745 -31.208519  -0.003376 -23.612457  -0.002519  -5.403354  -3.212314   6.381438 -66.120342  -2.882537  -7.001924  83.341511  -0.003219  -0.001842 -44.898670 -11.527461  -6.253828   1.101109   0.000169   0.000301 -70.443143   2.520778   4.978214  89.506813   0.000111  -0.000402 -26.895326   2.530033   2.049103 -27.532188  -0.008945  -0.001716
 -2.383550   0.719347   3.999494  26.666726   4.633307  -0.666492  48.186052  -1.279575  -2.108129  -3.941121  -2.088427  -3.148099 -20.149844   1.373648  -5.856022  -8.234678  26.058098  12.845095 -17.549685  10.134783  27.588853  -0.018652  26.028945   0.005559  -0.149589  -0.993725  -5.048723 -12.500032 -21.905696 -13.514395 -17.335305  -8.961014 -30.015257  -0.017533 -24.131104  -0.010264  -5.623413  -2.625785   5.953162 -65.197752  -3.046972  -7.025608  82.985552  -0.003185  -0.001905 -44.809089 -11.725964  -5.984167   0.686836   0.000725  -0.000001 -69.586246   2.343998   4.891148  88.830342  -0.000357  -0.001019 -25.761372   2.551909   1.768256 -25.917226  -0.004804   0.002089
 -2.383115   0.721993   4.002732  26.368185   4.954364  -0.791021  47.376697  -1.407239  -1.936155  -4.006481  -2.245042  -3.213652 -19.799490   1.361337  -5.867959  -9.238473  27.455708  12.300169 -19.592387  11.232278  26.473042  -0.036775  26.706464   0.015052  -0.303891  -1.458926  -4.847051 -13.676467 -23.306951 -12.668998 -19.967597 -10.586682 -28.732322  -0.031110 -24.673206  -0.017280  -5.813466  -2.280508   5.681919 -64.314736  -3.187375  -7.132349  82.523156  -0.003299  -0.001991 -44.605319 -11.925099  -5.739279   0.229704   0.001072  -0.000167 -68.924454   2.171930   4.731397  88.514823  -0.000412  -0.001090 -25.292328   2.493229   1.423127 -27.598201  -0.007890  -0.001086
 -2.382523   0.724880   4.006151  26.140806   5.266526  -0.905943  46.540939  -1.526199  -1.785042  -4.192580  -2.397654  -3.286526 -19.457530   1.349107  -5.881431 -10.269457  28.837301  11.682872 -21.545294  12.377678  25.361861  -0.051846  27.373050   0.022405  -0.428628  -1.679932  -4.901338 -14.853940 -24.720741 -11.786419 -22.544379 -12.301009 -27.474305  -0.042742 -25.214560  -0.023291  -5.968215  -2.178467   5.593347 -63.469318  -3.319128  -7.244543  82.000460  -0.003494  -0.002066 -44.364800 -12.114663  -5.511893  -0.238252   0.001238  -0.000302 -68.300126   2.041967   4.567330  88.174475  -0.000544  -0.001144 -24.681183   2.428287   1.121432 -29.324437  -0.010043  -0.003711
 -2.381755   0.727812   4.009978  25.972313   5.569189  -1.029537  45.651330  -1.635784  -1.643146  -4.491598  -2.544076  -3.353657 -19.136938   1.338256  -5.897398 -11.282082  30.180074  11.044825 -23.389851  13.533956  24.302154  -0.063556  28.017113   0.028033  -0.534342  -1.746082  -5.102701 -16.001975 -26.121661 -10.893667 -24.972549 -14.018219 -26.315920  -0.052002 -25.748145  -0.028105  -6.096389  -2.267037   5.638990 -62.645443  -3.451661  -7.351789  81.459028  -0.003721  -0.002101 -44.114798 -12.292173  -5.298549  -0.742368   0.001255  -0.000472 -67.694596   1.938399   4.414552  87.812251  -0.000748  -0.001207 -24.076986   2.376680   0.840993 -30.917660  -0.011193  -0.006113
 -2.380778   0.730718   4.014368  25.849751   5.858067  -1.160129  44.700535  -1.735855  -1.508924  -4.882721  -2.682410  -3.413053 -18.842626   1.328631  -5.915067 -12.251450  31.468519  10.411906 -25.119993  14.676867  23.313873  -0.072056  28.633306   0.032189  -0.627058  -1.713386  -5.383304 -17.089482 -27.484988 -10.015839 -27.246365 -15.704462 -25.272947  -0.058825 -26.264995  -0.031704  -6.206066  -2.476241   5.752138 -61.827151  -3.584298  -7.455023  80.919169  -0.003935  -0.002064 -43.860965 -12.459028  -5.098595  -1.308923   0.001112  -0.000675 -67.088026   1.854322   4.273067  87.448379  -0.000966  -0.001253 -23.493968   2.331573   0.579940 -32.427351  -0.011697  -0.008115
 -2.379568   0.733579   4.019421  25.766067   6.129132  -1.294231  43.687818  -1.824987  -1.381625  -5.348005  -2.810552  -3.464661 -18.574526   1.320085  -5.933828 -13.164183  32.692453   9.796018 -26.735847  15.790031  22.402999  -0.077709  29.219030   0.035078  -0.710005  -1.618148  -5.703425 -18.101740 -28.793766  -9.164420 -29.369227 -17.338080 -24.345080  -0.063435 -26.760449  -0.034145  -6.302395  -2.758465   5.896860 -61.003746  -3.716393  -7.556199  80.387585  -0.004112  -0.001944 -43.601789 -12.617259  -4.911767  -1.955930   0.000776  -0.000892 -66.467452   1.787811   4.141239  87.090798  -0.001164  -0.001265 -22.930829   2.291742   0.336879 -33.900110  -0.011806  -0.009737
 -2.378117   0.737723   4.024722  25.543773   6.383408  -1.418107  42.750240  -1.850252  -1.269272  -5.376238  -2.943758  -3.445797 -17.949067   1.304772  -5.976846 -14.035503  33.799164   8.605906 -28.815194  16.759841  21.481611  -0.098798  30.167132   0.044409  -0.781280  -1.873342  -5.313802 -18.936734 -30.139273  -7.692503 -31.765011 -18.905023 -23.459002  -0.078716 -27.557560  -0.039011  -6.504399  -2.630449   5.578495 -60.046560  -3.829109  -7.636227  79.792004  -0.004459  -0.001888 -42.687676 -12.971335  -4.427585  -3.456000   0.002292   0.000394 -65.738122   1.620863   3.995342  86.655002  -0.001043  -0.001167 -21.576568   2.164255  -0.148378 -36.302720  -0.017669  -0.012215
